<svg xmlns="http://www.w3.org/2000/svg" width="48" height="48" viewBox="0 0 48 48">
  <g id="ic_language_48px" style="isolation: isolate">
    <path id="Path_1455" data-name="Path 1455" d="M0,0H48V48H0Z" fill="none"/>
    <path id="Path_1456" data-name="Path 1456" d="M23.99,4A20,20,0,1,0,44,24,19.986,19.986,0,0,0,23.99,4ZM37.84,16h-5.9a31.77,31.77,0,0,0-2.76-7.12A16.016,16.016,0,0,1,37.84,16ZM24,8.07A27.7,27.7,0,0,1,27.82,16H20.18A27.7,27.7,0,0,1,24,8.07ZM8.52,28a15.645,15.645,0,0,1,0-8h6.75A32.9,32.9,0,0,0,15,24a31,31,0,0,0,.28,4Zm1.63,4h5.9a32.036,32.036,0,0,0,2.76,7.13A16.034,16.034,0,0,1,10.15,32Zm5.9-16h-5.9a16.034,16.034,0,0,1,8.66-7.13A32.036,32.036,0,0,0,16.05,16ZM24,39.93A28.232,28.232,0,0,1,20.18,32h7.64A28.232,28.232,0,0,1,24,39.93ZM28.68,28H19.32A27.791,27.791,0,0,1,19,24a27.791,27.791,0,0,1,.32-4h9.36A27.791,27.791,0,0,1,29,24,27.791,27.791,0,0,1,28.68,28Zm.51,11.12A31.957,31.957,0,0,0,31.95,32h5.9a16.087,16.087,0,0,1-8.66,7.12ZM32.72,28A32.889,32.889,0,0,0,33,24a31,31,0,0,0-.28-4h6.75A16.011,16.011,0,0,1,40,24a15.561,15.561,0,0,1-.53,4Z" fill="#cce8ff"/>
  </g>
</svg>
